<svg width="160" height="143" viewBox="0 0 160 143" fill="none" xmlns="http://www.w3.org/2000/svg">
<path d="M91.8508 16.792L120.829 23.1882L80.1147 94.9998L102.862 36.562L91.8508 16.792Z" fill="white"/>
<path d="M68.3124 16.792L39.1707 23.1882L80.1147 94.9998L57.2385 36.562L68.3124 16.792Z" fill="white"/>
<path d="M79.9231 0.27262L59.4126 36.8037L80.0762 32.1974L100.587 36.8037L80.0762 0.27262V0L79.9997 0.13631L79.9231 0V0.27262Z" fill="white"/>
<path d="M80.2164 33.8134L59.4126 38.3188L80.0719 94.9995L100.587 38.3188L80.2164 33.8134Z" fill="white"/>
<mask id="mask0_596_2562" style="mask-type:alpha" maskUnits="userSpaceOnUse" x="59" y="0" width="42" height="95">
<path d="M79.9236 0.27262L59.4131 36.8037L80.0767 32.1974L100.587 36.8037L80.0767 0.27262V0L80.0001 0.13631L79.9236 0V0.27262Z" fill="white"/>
<path d="M80.2168 33.8134L59.4131 38.3188L80.0724 94.9995L100.587 38.3188L80.2168 33.8134Z" fill="white"/>
</mask>
<g mask="url(#mask0_596_2562)">
<rect x="80.1152" y="-4.60071" width="33.3533" height="104.2" fill="#D7D7D7"/>
</g>
<path d="M0.794945 117.497H14.8573V120.731H9.45711V136H6.19509V120.731H0.794945V117.497ZM23.71 121.115L17.8439 136H14.2803L20.7769 119.553C21.4622 117.826 22.7232 117.168 24.6694 117.168C26.5883 117.168 27.8492 117.826 28.5071 119.553L34.757 136H31.166L25.5466 121.115C25.3821 120.677 25.0806 120.485 24.642 120.485C24.2034 120.485 23.9019 120.677 23.71 121.115ZM37.4483 117.497H47.4811C51.6477 117.497 53.4294 120.073 53.4294 123.034C53.4294 125.337 52.333 127.804 49.5095 128.599L53.8132 136H50.2222L46.0008 128.845H41.1763C40.8748 128.845 40.7103 128.982 40.7103 129.311V136H37.4757V128.681C37.4757 126.597 38.3529 125.748 40.3814 125.748H47.5907C49.4273 125.748 50.1674 124.487 50.1674 123.171C50.1674 121.855 49.3725 120.731 47.5907 120.731H37.4483V117.497ZM64.7743 121.115L58.9082 136H55.3446L61.8413 119.553C62.5265 117.826 63.7875 117.168 65.7337 117.168C67.6526 117.168 68.9135 117.826 69.5714 119.553L75.8213 136H72.2304L66.6109 121.115C66.4464 120.677 66.1449 120.485 65.7063 120.485C65.2677 120.485 64.9662 120.677 64.7743 121.115ZM81.7746 121.362V136H78.54V121.197C78.54 118.785 79.9106 117.168 82.7889 117.168C85.3656 117.168 86.5169 118.484 87.2844 120.594L92.6846 132.409C92.9039 132.847 93.2602 133.176 93.8633 133.176C94.5486 133.176 94.9598 132.765 94.9598 132.135V117.497H98.2218V132.272C98.2218 134.711 96.8238 136.329 93.9729 136.329C91.3962 136.329 90.2175 135.013 89.45 132.902L84.0498 121.088C83.8031 120.539 83.4742 120.293 82.8985 120.293C82.1584 120.293 81.7746 120.704 81.7746 121.362ZM102.66 117.497H105.895V136H102.66V117.497ZM110.232 117.497H113.522V129.859C113.522 131.696 114.454 132.765 116.592 132.765H119.881C121.965 132.765 122.924 131.696 122.924 129.859V117.497H126.104V130.106C126.104 133.999 124.048 136 120.101 136H116.208C112.261 136 110.232 133.999 110.232 130.106V117.497ZM136.64 121.088L131.103 136H127.649L133.378 120.594C134.091 118.484 135.269 117.168 137.736 117.168C140.478 117.168 141.848 118.785 141.848 121.197V132.135C141.848 132.765 142.232 133.176 142.78 133.176C143.274 133.176 143.657 132.875 143.822 132.409L148.317 120.594C149.03 118.484 150.209 117.168 152.676 117.168C155.417 117.168 156.788 118.785 156.788 121.197V136H153.526V121.362C153.526 120.704 153.142 120.293 152.594 120.293C152.128 120.293 151.744 120.622 151.579 121.088L147.084 132.902C146.371 135.013 145.165 136.329 142.698 136.329C139.984 136.329 138.614 134.711 138.614 132.272V121.362C138.614 120.704 138.202 120.293 137.654 120.293C137.161 120.293 136.832 120.622 136.64 121.088Z" fill="white"/>
</svg>
