<svg width="443" height="573" viewBox="0 0 443 573" fill="none" xmlns="http://www.w3.org/2000/svg">
<path d="M220.89 1.27581L124.941 172.17L221.606 150.621L317.555 172.17L221.606 1.27581V0.000488281L221.248 0.638151L220.89 0.000488281V1.27581Z" fill="url(#paint0_linear_737_188)"/>
<path d="M222.262 158.181L124.941 179.257L221.586 444.412L317.555 179.257L222.262 158.181Z" fill="url(#paint1_linear_737_188)"/>
<mask id="mask0_737_188" style="mask-type:alpha" maskUnits="userSpaceOnUse" x="124" y="0" width="193" height="445">
<path d="M220.314 1.27533L124.365 172.169L221.03 150.621L316.979 172.169L221.03 1.27533V0L220.672 0.637663L220.314 0V1.27533Z" fill="url(#paint2_linear_737_188)"/>
<path d="M221.686 158.18L124.365 179.257L221.01 444.411L316.979 179.257L221.686 158.18Z" fill="url(#paint3_linear_737_188)"/>
</mask>
<g mask="url(#mask0_737_188)">
<path d="M221.79 -21.521H377.818V465.933H221.79V-21.521Z" fill="#928154"/>
</g>
<path fill-rule="evenodd" clip-rule="evenodd" d="M33.9518 107.306L169.25 79.5L118.359 169.501L33.9518 107.306ZM31.9177 115.124L213.75 444.5L116.014 177.089L31.9177 115.124Z" fill="url(#paint4_linear_737_188)"/>
<path fill-rule="evenodd" clip-rule="evenodd" d="M409.048 107.306L273.75 79.5L324.641 169.501L409.048 107.306ZM411.082 115.124L229.25 444.5L326.986 177.089L411.082 115.124Z" fill="url(#paint5_linear_737_188)"/>
<path d="M2.16322 506.52H37.868V514.733H24.1568V553.5H15.8744V514.733H2.16322V506.52ZM65.9136 515.707L51.0192 553.5H41.9712L58.4664 511.74C60.2064 507.355 63.408 505.685 68.3496 505.685C73.2216 505.685 76.4232 507.355 78.0936 511.74L93.9624 553.5H84.8448L70.5768 515.707C70.1592 514.594 69.3936 514.106 68.28 514.106C67.1664 514.106 66.4008 514.594 65.9136 515.707ZM106.364 506.52H131.837C142.416 506.52 146.94 513.062 146.94 520.579C146.94 526.426 144.156 532.69 136.988 534.708L147.915 553.5H138.797L128.079 535.334H115.829C115.064 535.334 114.646 535.682 114.646 536.518V553.5H106.433V534.917C106.433 529.627 108.66 527.47 113.811 527.47H132.116C136.779 527.47 138.658 524.268 138.658 520.927C138.658 517.586 136.64 514.733 132.116 514.733H106.364V506.52ZM181.314 515.707L166.419 553.5H157.371L173.866 511.74C175.606 507.355 178.808 505.685 183.75 505.685C188.622 505.685 191.823 507.355 193.494 511.74L209.362 553.5H200.245L185.977 515.707C185.559 514.594 184.794 514.106 183.68 514.106C182.566 514.106 181.801 514.594 181.314 515.707ZM230.046 516.334V553.5H221.833V515.916C221.833 509.791 225.313 505.685 232.621 505.685C239.164 505.685 242.087 509.026 244.036 514.385L257.747 544.382C258.304 545.496 259.209 546.331 260.74 546.331C262.48 546.331 263.524 545.287 263.524 543.686V506.52H271.806V544.034C271.806 550.229 268.257 554.335 261.018 554.335C254.476 554.335 251.483 550.994 249.534 545.635L235.823 515.638C235.197 514.246 234.361 513.619 232.9 513.619C231.021 513.619 230.046 514.663 230.046 516.334ZM288.643 506.52H296.856V553.5H288.643V506.52ZM313.438 506.52H321.79V537.91C321.79 542.573 324.156 545.287 329.585 545.287H337.937C343.227 545.287 345.663 542.573 345.663 537.91V506.52H353.736V538.536C353.736 548.419 348.516 553.5 338.494 553.5H328.611C318.588 553.5 313.438 548.419 313.438 538.536V506.52ZM386.056 515.638L371.996 553.5H363.227L377.773 514.385C379.583 509.026 382.576 505.685 388.84 505.685C395.8 505.685 399.28 509.791 399.28 515.916V543.686C399.28 545.287 400.254 546.331 401.646 546.331C402.899 546.331 403.873 545.566 404.291 544.382L415.705 514.385C417.515 509.026 420.508 505.685 426.772 505.685C433.732 505.685 437.212 509.791 437.212 515.916V553.5H428.929V516.334C428.929 514.663 427.955 513.619 426.563 513.619C425.38 513.619 424.405 514.454 423.988 515.638L412.573 545.635C410.764 550.994 407.701 554.335 401.437 554.335C394.547 554.335 391.067 550.229 391.067 544.034V516.334C391.067 514.663 390.023 513.619 388.631 513.619C387.378 513.619 386.543 514.454 386.056 515.638Z" fill="white"/>
<defs>
<linearGradient id="paint0_linear_737_188" x1="221.248" y1="0.000488281" x2="221.248" y2="444.412" gradientUnits="userSpaceOnUse">
<stop stop-color="#FCE99D"/>
<stop offset="1" stop-color="#9C8A5C"/>
</linearGradient>
<linearGradient id="paint1_linear_737_188" x1="221.248" y1="0.000488281" x2="221.248" y2="444.412" gradientUnits="userSpaceOnUse">
<stop stop-color="#FCE99D"/>
<stop offset="1" stop-color="#9C8A5C"/>
</linearGradient>
<linearGradient id="paint2_linear_737_188" x1="220.672" y1="0" x2="220.672" y2="444.411" gradientUnits="userSpaceOnUse">
<stop stop-color="#FEEA9B"/>
<stop offset="1" stop-color="#FCE097"/>
</linearGradient>
<linearGradient id="paint3_linear_737_188" x1="220.672" y1="0" x2="220.672" y2="444.411" gradientUnits="userSpaceOnUse">
<stop stop-color="#FEEA9B"/>
<stop offset="1" stop-color="#FCE097"/>
</linearGradient>
<linearGradient id="paint4_linear_737_188" x1="121" y1="79.5" x2="123.25" y2="727" gradientUnits="userSpaceOnUse">
<stop stop-color="#9D8C61"/>
<stop offset="1" stop-color="#9D8C61" stop-opacity="0"/>
</linearGradient>
<linearGradient id="paint5_linear_737_188" x1="322" y1="79.5" x2="321.75" y2="722.5" gradientUnits="userSpaceOnUse">
<stop stop-color="#9D8C61"/>
<stop offset="1" stop-color="#9D8C61" stop-opacity="0"/>
</linearGradient>
</defs>
</svg>
